<svg xmlns="http://www.w3.org/2000/svg" width="16" height="16" viewBox="0 0 500 500">
<path d="M420 398l0 0c0 4-4 8-8 8l0 0-17 0 0-309 0 0c0-5-4-9-9-9l0 0-260 0c-4 0-8 3-9 7l0 19 243 0 0 0c0 0 0 0 0 0 5 0 9 4 9 8 0 0 0 0 0 0l0 319c0 4-4 8-9 8 0 0 0 0 0 0l0 0-29 0 0-179c0-2-2-4-4-4-1 0-3 1-3 2l-29 29 0 0c-1 0-2 1-3 1-1 0-2-1-3-1l0 0-29-30 0 0c-1 0-2-1-3-1-2 0-4 2-4 4l0 179-153 0c-4 0-8-4-8-8 0 0 0 0 0-1l0-368c0-1 0-1 0-1 0 0 0 0 0 0l0 0 0 0c0-5 4-8 8-8l0 0 312 0 0 0 0 0c4 0 8 4 8 8l0 0z"/>
</svg>
